<svg xmlns="http://www.w3.org/2000/svg" viewBox="0 0 120 60" width="120" height="60">
  <rect width="120" height="60" rx="8" fill="#fff" stroke="#e2e8f0" stroke-width="1"/>
  <rect x="8" y="8" width="45" height="5" rx="2.5" fill="#0B1B3D"/>
  <rect x="10" y="22" width="14" height="30" rx="2" fill="#f8fafc" stroke="#e2e8f0" stroke-width="0.5"/>
  <rect x="12" y="30" width="10" height="4" rx="2" fill="#0B1B3D"/>
  <rect x="12" y="36" width="10" height="4" rx="2" fill="#FF6B00"/>
  <rect x="28" y="22" width="14" height="30" rx="2" fill="#f8fafc" stroke="#0B1B3D" stroke-width="1"/>
  <rect x="30" y="28" width="10" height="4" rx="2" fill="#0B1B3D"/>
  <rect x="30" y="34" width="10" height="4" rx="2" fill="#FF6B00"/>
  <rect x="46" y="22" width="14" height="30" rx="2" fill="#f8fafc" stroke="#e2e8f0" stroke-width="0.5"/>
  <rect x="48" y="32" width="10" height="4" rx="2" fill="#0B1B3D"/>
  <rect x="48" y="38" width="10" height="4" rx="2" fill="#FF6B00"/>
  <rect x="64" y="22" width="14" height="30" rx="2" fill="#f8fafc" stroke="#e2e8f0" stroke-width="0.5"/>
  <rect x="66" y="34" width="10" height="4" rx="2" fill="#0B1B3D"/>
  <rect x="66" y="40" width="10" height="4" rx="2" fill="#ef4444"/>
  <rect x="82" y="22" width="14" height="30" rx="2" fill="#f8fafc" stroke="#e2e8f0" stroke-width="0.5"/>
  <rect x="84" y="36" width="10" height="4" rx="2" fill="#0B1B3D"/>
  <rect x="84" y="42" width="10" height="4" rx="2" fill="#FF6B00"/>
  <rect x="100" y="22" width="14" height="30" rx="2" fill="#f8fafc" stroke="#e2e8f0" stroke-width="0.5"/>
  <rect x="102" y="40" width="10" height="4" rx="2" fill="#0B1B3D"/>
  <rect x="102" y="46" width="10" height="4" rx="2" fill="#FF6B00"/>
</svg>
