<svg xmlns="http://www.w3.org/2000/svg" viewBox="0 0 120 80" width="120" height="80">
  <rect width="120" height="80" rx="8" fill="#fff" stroke="#e2e8f0" stroke-width="1"/>
  <rect x="8" y="8" width="40" height="5" rx="2.5" fill="#0B1B3D"/>
  <rect x="8" y="20" width="104" height="1" fill="#f1f5f9"/>
  <rect x="8" y="28" width="20" height="3" rx="1.5" fill="#94a3b8"/>
  <rect x="34" y="28" width="20" height="3" rx="1.5" fill="#94a3b8"/>
  <rect x="60" y="28" width="20" height="3" rx="1.5" fill="#94a3b8"/>
  <rect x="86" y="28" width="20" height="3" rx="1.5" fill="#94a3b8"/>
  <rect x="8" y="38" width="104" height="1" fill="#f1f5f9"/>
  <rect x="8" y="44" width="18" height="3" rx="1.5" fill="#334155"/>
  <rect x="34" y="44" width="15" height="3" rx="1.5" fill="#334155"/>
  <rect x="60" y="43" width="18" height="5" rx="2.5" fill="rgba(16,185,129,0.1)"/>
  <rect x="8" y="54" width="104" height="1" fill="#f1f5f9"/>
  <rect x="8" y="60" width="18" height="3" rx="1.5" fill="#334155"/>
  <rect x="34" y="60" width="15" height="3" rx="1.5" fill="#334155"/>
  <rect x="60" y="59" width="18" height="5" rx="2.5" fill="rgba(59,130,246,0.1)"/>
  <rect x="8" y="70" width="104" height="1" fill="#f1f5f9"/>
</svg>
