<svg xmlns="http://www.w3.org/2000/svg" viewBox="0 0 120 120" width="100" height="100">
  <rect width="120" height="120" rx="10" fill="#0B1B3D"/>
  <!-- Section Title mockup -->
  <rect x="25" y="15" width="70" height="6" rx="2" fill="#FF6B00"/>
  <rect x="35" y="26" width="50" height="4" rx="1.5" fill="#ffffff" opacity="0.4"/>
  <!-- 4 Grid Cards -->
  <!-- Card 1 -->
  <rect x="15" y="40" width="40" height="30" rx="3" fill="#ffffff" opacity="0.05" stroke="#ffffff" stroke-width="0.5"/>
  <rect x="15" y="40" width="40" height="15" rx="3" fill="#64748b" opacity="0.3"/>
  <rect x="20" y="60" width="20" height="3" rx="1" fill="#ffffff" opacity="0.8"/>
  <circle cx="48" cy="48" r="4" fill="#FF6B00"/>
  <!-- Card 2 -->
  <rect x="65" y="40" width="40" height="30" rx="3" fill="#ffffff" opacity="0.05" stroke="#ffffff" stroke-width="0.5"/>
  <rect x="65" y="40" width="40" height="15" rx="3" fill="#64748b" opacity="0.3"/>
  <rect x="70" y="60" width="20" height="3" rx="1" fill="#ffffff" opacity="0.8"/>
  <!-- Card 3 -->
  <rect x="15" y="78" width="40" height="30" rx="3" fill="#ffffff" opacity="0.05" stroke="#ffffff" stroke-width="0.5"/>
  <rect x="15" y="78" width="40" height="15" rx="3" fill="#64748b" opacity="0.3"/>
  <rect x="20" y="98" width="20" height="3" rx="1" fill="#ffffff" opacity="0.8"/>
  <!-- Card 4 -->
  <rect x="65" y="78" width="40" height="30" rx="3" fill="#ffffff" opacity="0.05" stroke="#ffffff" stroke-width="0.5"/>
  <rect x="65" y="78" width="40" height="15" rx="3" fill="#64748b" opacity="0.3"/>
  <rect x="70" y="98" width="20" height="3" rx="1" fill="#ffffff" opacity="0.8"/>
</svg>
