<svg xmlns="http://www.w3.org/2000/svg" viewBox="0 0 120 120" width="100" height="100">
  <rect width="120" height="120" rx="10" fill="#0B1B3D" stroke="#00A8FF" stroke-width="2"/>
  <!-- Top brand mockup -->
  <rect x="15" y="15" width="45" height="8" rx="2" fill="#ffffff" opacity="0.9"/>
  <rect x="15" y="27" width="35" height="3" rx="1" fill="#ffffff" opacity="0.4"/>
  <!-- Newsletter subscription mock -->
  <rect x="75" y="15" width="30" height="12" rx="6" fill="#ffffff" opacity="0.05" stroke="#ffffff" stroke-width="0.5"/>
  <circle cx="98" cy="21" r="4" fill="#FF6B00"/>
  <!-- Divider -->
  <line x1="15" y1="48" x2="105" y2="48" stroke="#ffffff" stroke-width="0.5" opacity="0.1"/>
  <!-- Links lists -->
  <rect x="15" y="58" width="15" height="4" rx="1" fill="#FF6B00" opacity="0.8"/>
  <rect x="15" y="68" width="22" height="2" rx="1.5" fill="#ffffff" opacity="0.4"/>
  <rect x="15" y="74" width="18" height="2" rx="1.5" fill="#ffffff" opacity="0.4"/>

  <rect x="48" y="58" width="15" height="4" rx="1" fill="#FF6B00" opacity="0.8"/>
  <rect x="48" y="68" width="22" height="2" rx="1.5" fill="#ffffff" opacity="0.4"/>
  <rect x="48" y="74" width="18" height="2" rx="1.5" fill="#ffffff" opacity="0.4"/>

  <rect x="80" y="58" width="15" height="4" rx="1" fill="#FF6B00" opacity="0.8"/>
  <rect x="80" y="68" width="22" height="2" rx="1.5" fill="#ffffff" opacity="0.4"/>
  <rect x="80" y="74" width="18" height="2" rx="1.5" fill="#ffffff" opacity="0.4"/>
  <!-- Divider -->
  <line x1="15" y1="90" x2="105" y2="90" stroke="#ffffff" stroke-width="0.5" opacity="0.1"/>
  <!-- Copyright & bottom links -->
  <rect x="15" y="100" width="32" height="2" rx="1" fill="#ffffff" opacity="0.3"/>
  <rect x="75" y="100" width="30" height="2" rx="1" fill="#ffffff" opacity="0.3"/>
</svg>
